<?xml version="1.0" encoding="UTF-8"?>
<svg version="1.1" xmlns="http://www.w3.org/2000/svg" width="84" height="80">
<path d="M0 0 C0.90809921 -0.0004985 1.81619843 -0.00099701 2.7518158 -0.00151062 C4.66212159 0.00081926 6.57243107 0.01048326 8.48266602 0.02709961 C11.39692781 0.05073732 14.31027569 0.04764637 17.22460938 0.04101562 C19.087245 0.04659187 20.94987681 0.05370141 22.8125 0.0625 C23.67827164 0.06158859 24.54404327 0.06067719 25.43605042 0.05973816 C30.12868627 0.11443237 33.92678265 0.56247989 38.33984375 2.36328125 C38.33984375 5.00328125 38.33984375 7.64328125 38.33984375 10.36328125 C34.87484375 11.84828125 34.87484375 11.84828125 31.33984375 13.36328125 C34.30984375 13.85828125 34.30984375 13.85828125 37.33984375 14.36328125 C37.8933745 28.1810489 37.8933745 28.1810489 34.33984375 33.36328125 C33.67984375 33.36328125 33.01984375 33.36328125 32.33984375 33.36328125 C32.37126465 34.91438599 32.37126465 34.91438599 32.40332031 36.49682617 C32.47589663 40.34515453 32.52170692 44.19342279 32.55957031 48.04223633 C32.57964582 49.70575138 32.60691251 51.36919621 32.64160156 53.0324707 C32.69030141 55.42807365 32.71285231 57.82274117 32.73046875 60.21875 C32.75111389 60.95852585 32.77175903 61.6983017 32.79302979 62.460495 C32.79461676 66.13924372 32.44897238 68.190295 30.46777344 71.33081055 C27.92690746 73.75769321 26.80931127 74.04116947 23.33984375 73.98828125 C22.07140625 74.00761719 22.07140625 74.00761719 20.77734375 74.02734375 C17.21868706 73.05783792 16.29282821 71.45907235 14.33984375 68.36328125 C13.99697164 65.50877875 13.86994882 63.05922375 13.94921875 60.21875 C13.95487854 59.44896317 13.96053833 58.67917633 13.96636963 57.88606262 C13.98866503 55.44032182 14.038845 52.99607515 14.08984375 50.55078125 C14.10991775 48.88739103 14.12816695 47.22397772 14.14453125 45.56054688 C14.18850691 41.49422067 14.25748396 37.42900381 14.33984375 33.36328125 C13.01984375 33.36328125 11.69984375 33.36328125 10.33984375 33.36328125 C9.67984375 33.36328125 9.01984375 33.36328125 8.33984375 33.36328125 C8.36079102 34.39735107 8.38173828 35.4314209 8.40332031 36.49682617 C8.47589663 40.34515453 8.52170692 44.19342279 8.55957031 48.04223633 C8.57964582 49.70575138 8.60691251 51.36919621 8.64160156 53.0324707 C8.69030141 55.42807365 8.71285231 57.82274117 8.73046875 60.21875 C8.75111389 60.95852585 8.77175903 61.6983017 8.79302979 62.460495 C8.79461702 66.1398274 8.44822322 68.19135533 6.46777344 71.33300781 C4.33984375 73.36328125 4.33984375 73.36328125 1.90234375 73.9921875 C-5.00122354 73.81328408 -5.00122354 73.81328408 -8.22265625 71.61328125 C-10.96873127 67.31507688 -10.80215628 63.21349912 -10.87109375 58.18359375 C-10.89916253 56.76561346 -10.927827 55.34764486 -10.95703125 53.9296875 C-10.99823406 51.70915054 -11.03514971 49.48883183 -11.06152344 47.26806641 C-11.08927488 45.11445908 -11.13513727 42.96182188 -11.18359375 40.80859375 C-11.20341309 39.52484863 -11.22323242 38.24110352 -11.24365234 36.91845703 C-11.68759249 33.12909222 -12.75793439 30.64273448 -14.66015625 27.36328125 C-14.66950195 28.31170898 -14.67884766 29.26013672 -14.68847656 30.23730469 C-14.73254856 33.76392883 -14.79418408 37.28934328 -14.86767578 40.81542969 C-14.8958616 42.34005556 -14.91708814 43.86482691 -14.93115234 45.38964844 C-14.95261674 47.58474061 -14.99927794 49.77808836 -15.05078125 51.97265625 C-15.08220215 53.95217285 -15.08220215 53.95217285 -15.11425781 55.97167969 C-15.66015625 59.36328125 -15.66015625 59.36328125 -17.50292969 61.82519531 C-19.66015625 63.36328125 -19.66015625 63.36328125 -22.78515625 63.36328125 C-25.66015625 62.36328125 -25.66015625 62.36328125 -26.83203125 60.72265625 C-27.9280933 57.59991343 -27.85117898 54.9144177 -27.78515625 51.61328125 C-27.76710938 50.4428125 -27.7490625 49.27234375 -27.73046875 48.06640625 C-27.70726562 47.174375 -27.6840625 46.28234375 -27.66015625 45.36328125 C-28.32015625 45.36328125 -28.98015625 45.36328125 -29.66015625 45.36328125 C-30.15515625 43.87828125 -30.15515625 43.87828125 -30.66015625 42.36328125 C-31.98015625 42.36328125 -33.30015625 42.36328125 -34.66015625 42.36328125 C-34.66015625 37.74328125 -34.66015625 33.12328125 -34.66015625 28.36328125 C-33.34015625 28.36328125 -32.02015625 28.36328125 -30.66015625 28.36328125 C-30.33015625 29.35328125 -30.00015625 30.34328125 -29.66015625 31.36328125 C-29.00015625 31.36328125 -28.34015625 31.36328125 -27.66015625 31.36328125 C-27.99015625 25.42328125 -28.32015625 19.48328125 -28.66015625 13.36328125 C-29.32015625 13.36328125 -29.98015625 13.36328125 -30.66015625 13.36328125 C-30.99015625 15.01328125 -31.32015625 16.66328125 -31.66015625 18.36328125 C-32.98015625 18.36328125 -34.30015625 18.36328125 -35.66015625 18.36328125 C-36.02118777 11.98505775 -36.02118777 11.98505775 -34.53515625 9.42578125 C-31.77035192 7.8590588 -29.77827108 7.9735169 -26.66015625 8.36328125 C-24.47742095 9.97391451 -23.74285349 10.83478957 -23.31958008 13.53979492 C-23.33529053 14.3619751 -23.35100098 15.18415527 -23.3671875 16.03125 C-23.37685547 16.92392578 -23.38652344 17.81660156 -23.39648438 18.73632812 C-23.42162109 19.66509766 -23.44675781 20.59386719 -23.47265625 21.55078125 C-23.48619141 22.49115234 -23.49972656 23.43152344 -23.51367188 24.40039062 C-23.54902529 26.72193163 -23.59836951 29.04231778 -23.66015625 31.36328125 C-22.67015625 31.36328125 -21.68015625 31.36328125 -20.66015625 31.36328125 C-20.72203125 30.12578125 -20.78390625 28.88828125 -20.84765625 27.61328125 C-20.85287358 24.67070539 -20.73910145 23.50681798 -19.28515625 20.86328125 C-17.66015625 19.36328125 -17.66015625 19.36328125 -15.66015625 19.36328125 C-15.33015625 17.71328125 -15.00015625 16.06328125 -14.66015625 14.36328125 C-13.01015625 14.03328125 -11.36015625 13.70328125 -9.66015625 13.36328125 C-11.97015625 12.37328125 -14.28015625 11.38328125 -16.66015625 10.36328125 C-16.66015625 8.05328125 -16.66015625 5.74328125 -16.66015625 3.36328125 C-10.93315972 0.44209302 -6.37825326 -0.06800843 0 0 Z M1.33984375 13.36328125 C1.33984375 13.69328125 1.33984375 14.02328125 1.33984375 14.36328125 C7.93984375 14.36328125 14.53984375 14.36328125 21.33984375 14.36328125 C21.33984375 14.03328125 21.33984375 13.70328125 21.33984375 13.36328125 C14.73984375 13.36328125 8.13984375 13.36328125 1.33984375 13.36328125 Z M-23.66015625 45.36328125 C-23.66015625 49.65328125 -23.66015625 53.94328125 -23.66015625 58.36328125 C-22.67015625 58.69328125 -21.68015625 59.02328125 -20.66015625 59.36328125 C-20.66015625 54.41328125 -20.66015625 49.46328125 -20.66015625 44.36328125 C-21.88376305 44.28874565 -21.88376305 44.28874565 -23.66015625 45.36328125 Z " fill="#091621" transform="translate(38.66015625,2.63671875)"/>
<path d="M0 0 C15.18 0 30.36 0 46 0 C46 2.64 46 5.28 46 8 C39.07 8 32.14 8 25 8 C25.33 8.66 25.66 9.32 26 10 C26.33 9.67 26.66 9.34 27 9 C29.86267567 8.92674832 32.700719 8.90761795 35.5625 8.9375 C36.36880859 8.94201172 37.17511719 8.94652344 38.00585938 8.95117188 C40.00393756 8.96299482 42.00197783 8.98093086 44 9 C44 10.32 44 11.64 44 13 C38.39 13 32.78 13 27 13 C26.67 14.32 26.34 15.64 26 17 C25.01 16.34 24.02 15.68 23 15 C22.01 15.33 21.02 15.66 20 16 C20.02094727 17.03406982 20.04189453 18.06813965 20.06347656 19.13354492 C20.13605288 22.98187328 20.18186317 26.83014154 20.21972656 30.67895508 C20.23980207 32.34247013 20.26706876 34.00591496 20.30175781 35.66918945 C20.35045766 38.0647924 20.37300856 40.45945992 20.390625 42.85546875 C20.41127014 43.5952446 20.43191528 44.33502045 20.45318604 45.09721375 C20.45531702 50.03701697 19.47451059 52.49843872 16 56 C12.31898615 55.29211272 9.25496089 53.8397605 6 52 C3.56224731 48.34337096 3.65313456 45.50584571 3.5859375 41.26953125 C3.56657135 40.51911057 3.5472052 39.76868988 3.5272522 38.99552917 C3.46752541 36.60130133 3.42109935 34.20702523 3.375 31.8125 C3.3368138 30.1881302 3.29776169 28.56378052 3.2578125 26.93945312 C3.16182975 22.95979895 3.07777364 18.98004999 3 15 C2.34 14.67 1.68 14.34 1 14 C0.65657551 12.66923011 0.32380126 11.33568021 0 10 C-0.66 9.34 -1.32 8.68 -2 8 C-1.34 8 -0.68 8 0 8 C0 7.01 0 6.02 0 5 C2.64 5 5.28 5 8 5 C8 4.34 8 3.68 8 3 C5.36 3 2.72 3 0 3 C0 2.01 0 1.02 0 0 Z " fill="#151617" transform="translate(27,20)"/>
<path d="M0 0 C2.1827353 1.61063326 2.91730276 2.47150832 3.34057617 5.17651367 C3.32486572 5.99869385 3.30915527 6.82087402 3.29296875 7.66796875 C3.28330078 8.56064453 3.27363281 9.45332031 3.26367188 10.37304688 C3.23853516 11.30181641 3.21339844 12.23058594 3.1875 13.1875 C3.17396484 14.12787109 3.16042969 15.06824219 3.14648438 16.03710938 C3.11113096 18.35865038 3.06178674 20.67903653 3 23 C3.99 23 4.98 23 6 23 C5.938125 21.7625 5.87625 20.525 5.8125 19.25 C5.80728267 16.30742414 5.9210548 15.14353673 7.375 12.5 C9 11 9 11 11 11 C11.33 9.35 11.66 7.7 12 6 C18.435 5.505 18.435 5.505 25 5 C25 5.99 25 6.98 25 8 C25.66 8 26.32 8 27 8 C27 7.34 27 6.68 27 6 C27.66 6.33 28.32 6.66 29 7 C30.52706643 7.0725275 32.05729731 7.08374341 33.5859375 7.0625 C34.97498291 7.04993164 34.97498291 7.04993164 36.39208984 7.03710938 C37.3764502 7.02486328 38.36081055 7.01261719 39.375 7 C47.33740172 6.94317183 55.07861668 7.14363424 63 8 C63 11.3 63 14.6 63 18 C62.34 18.33 61.68 18.66 61 19 C60.34786708 21.02463255 60.34786708 21.02463255 60 23 C59.34 23 58.68 23 58 23 C58.01047363 24.08007324 58.02094727 25.16014648 58.03173828 26.27294922 C58.06788194 30.27226459 58.09087984 34.27156546 58.10986328 38.27099609 C58.11993376 40.00344265 58.13359089 41.73587216 58.15087891 43.46826172 C58.17508162 45.95544639 58.18647239 48.44240675 58.1953125 50.9296875 C58.20563507 51.70682098 58.21595764 52.48395447 58.22659302 53.28463745 C58.22699271 55.19125493 58.1223214 57.09731036 58 59 C57.01 59.99 57.01 59.99 56 61 C56 48.79 56 36.58 56 24 C51.71 24 47.42 24 43 24 C43 35.55 43 47.1 43 59 C42.34 59 41.68 59 41 59 C40.97524531 54.37353911 40.95711406 49.74711694 40.94506836 45.12060547 C40.94004563 43.54735645 40.93322625 41.97411208 40.92456055 40.40087891 C40.91240471 38.13703257 40.90675104 35.87324807 40.90234375 33.609375 C40.89718246 32.90818542 40.89202118 32.20699585 40.88670349 31.48455811 C40.88631255 28.06644956 41.16218973 25.35124106 42 22 C47.61 22 53.22 22 59 22 C59 20.68 59 19.36 59 18 C56.20677782 18.08672746 53.41687472 18.19355357 50.625 18.3125 C49.8309375 18.33505859 49.036875 18.35761719 48.21875 18.38085938 C46.13784419 18.47785075 44.06558668 18.72994825 42 19 C41.34 19.99 40.68 20.98 40 22 C40 20.35 40 18.7 40 17 C46.93 17 53.86 17 61 17 C61 14.36 61 11.72 61 9 C45.82 9 30.64 9 15 9 C15 9.99 15 10.98 15 12 C17.64 12 20.28 12 23 12 C23 12.66 23 13.32 23 14 C20.36 14 17.72 14 15 14 C15.33 16.97 15.66 19.94 16 23 C16.99 23.33 17.98 23.66 19 24 C19.01401855 25.51352051 19.01401855 25.51352051 19.02832031 27.05761719 C19.0682477 30.80773776 19.13401281 34.55704029 19.20751953 38.30664062 C19.23571347 39.92827837 19.25693594 41.55005313 19.27099609 43.171875 C19.29244872 45.50592105 19.33910575 47.83832261 19.390625 50.171875 C19.39185364 50.89493835 19.39308228 51.61800171 19.39434814 52.36297607 C19.49372697 55.79210375 19.75810681 57.68342498 21.86621094 60.44238281 C24.27234938 62.19880881 26.06156673 62.67350741 29 63 C27 65 27 65 24.125 65.375 C21 65 21 65 18.6875 63.25 C15.55407902 59.07210536 15.85921399 54.93879698 15.7890625 49.8203125 C15.76099372 48.40233221 15.73232925 46.98436361 15.703125 45.56640625 C15.66192219 43.34586929 15.62500654 41.12555058 15.59863281 38.90478516 C15.57088137 36.75117783 15.52501898 34.59854063 15.4765625 32.4453125 C15.45674316 31.16156738 15.43692383 29.87782227 15.41650391 28.55517578 C14.97256376 24.76581097 13.90222186 22.27945323 12 19 C11.9906543 19.94842773 11.98130859 20.89685547 11.97167969 21.87402344 C11.92760769 25.40064758 11.86597217 28.92606203 11.79248047 32.45214844 C11.76429465 33.97677431 11.74306811 35.50154566 11.72900391 37.02636719 C11.70753951 39.22145936 11.66087831 41.41480711 11.609375 43.609375 C11.5779541 45.5888916 11.5779541 45.5888916 11.54589844 47.60839844 C11 51 11 51 9.15722656 53.46191406 C7 55 7 55 3.875 55 C1 54 1 54 -0.171875 52.359375 C-1.26793705 49.23663218 -1.19102273 46.55113645 -1.125 43.25 C-1.10695313 42.07953125 -1.08890625 40.9090625 -1.0703125 39.703125 C-1.04710937 38.81109375 -1.02390625 37.9190625 -1 37 C-1.66 37 -2.32 37 -3 37 C-3.495 35.515 -3.495 35.515 -4 34 C-5.32 34 -6.64 34 -8 34 C-8 29.38 -8 24.76 -8 20 C-6.68 20 -5.36 20 -4 20 C-3.67 20.99 -3.34 21.98 -3 23 C-2.34 23 -1.68 23 -1 23 C-1.33 17.06 -1.66 11.12 -2 5 C-2.66 5 -3.32 5 -4 5 C-4.33 6.65 -4.66 8.3 -5 10 C-6.32 10 -7.64 10 -9 10 C-9.36103152 3.6217765 -9.36103152 3.6217765 -7.875 1.0625 C-5.11019567 -0.50422245 -3.11811483 -0.38976435 0 0 Z M3 37 C3 41.29 3 45.58 3 50 C3.99 50.33 4.98 50.66 6 51 C6 46.05 6 41.1 6 36 C4.7763932 35.9254644 4.7763932 35.9254644 3 37 Z " fill="#0C0E0F" transform="translate(12,11)"/>
<path d="M0 0 C3.96 0 7.92 0 12 0 C12.07413521 5.07198888 12.12859451 10.14366268 12.16479492 15.21606445 C12.17988516 16.94170627 12.20035975 18.66730972 12.22631836 20.39282227 C12.26269209 22.87265488 12.27972359 25.35198064 12.29296875 27.83203125 C12.30845261 28.60400345 12.32393646 29.37597565 12.33988953 30.17134094 C12.34155749 35.47514578 12.34155749 35.47514578 10.7043457 37.9909668 C7.84308063 39.68493736 5.22389801 39.29308164 2 39 C0 37 0 37 -0.22705078 33.37646484 C-0.22673357 31.82125311 -0.21540299 30.26601949 -0.1953125 28.7109375 C-0.1924826 27.89251373 -0.18965271 27.07408997 -0.18673706 26.23086548 C-0.17552532 23.61209607 -0.15041929 20.99366636 -0.125 18.375 C-0.11497147 16.60156743 -0.1058454 14.82812951 -0.09765625 13.0546875 C-0.07558278 8.70299374 -0.04104644 4.3515545 0 0 Z " fill="#84CAE4" transform="translate(32,34)"/>
<path d="M0 0 C15.18 0 30.36 0 46 0 C46 2.31 46 4.62 46 7 C30.82 7 15.64 7 0 7 C0 6.34 0 5.68 0 5 C2.64 5 5.28 5 8 5 C8 4.34 8 3.68 8 3 C5.36 3 2.72 3 0 3 C0 2.01 0 1.02 0 0 Z " fill="#85D4E1" transform="translate(27,20)"/>
<path d="M0 0 C3.63 0 7.26 0 11 0 C11.07415168 4.78715623 11.12860204 9.57397827 11.16479492 14.36157227 C11.17988243 15.99021223 11.20035506 17.61881156 11.22631836 19.24731445 C11.26270449 21.58815535 11.2797262 23.92845919 11.29296875 26.26953125 C11.30845261 26.99775589 11.32393646 27.72598053 11.33988953 28.47627258 C11.34155685 33.48338481 11.34155685 33.48338481 9.7043457 35.9597168 C6.81797675 37.72147272 4.26897751 37.35661573 1 37 C-1.42130331 33.36804504 -1.21022785 31.61650652 -1.125 27.3125 C-1.09792969 25.54326172 -1.09792969 25.54326172 -1.0703125 23.73828125 C-1.04710937 22.83464844 -1.02390625 21.93101563 -1 21 C-0.34 21.33 0.32 21.66 1 22 C1.4140625 24.50390625 1.4140625 24.50390625 1.625 27.5625 C1.69976562 28.57441406 1.77453125 29.58632812 1.8515625 30.62890625 C1.90054688 31.41136719 1.94953125 32.19382813 2 33 C3.65614657 33.38218767 5.32457024 33.71395102 7 34 C8.87824891 32.12175109 8.39102397 28.96064724 8.5625 26.4375 C8.64628906 25.23996094 8.73007813 24.04242188 8.81640625 22.80859375 C8.87699219 21.88175781 8.93757813 20.95492187 9 20 C6.03 20 3.06 20 0 20 C0 16.37 0 12.74 0 9 C1.32 9 2.64 9 4 9 C4 7.02 4 5.04 4 3 C4.66 3 5.32 3 6 3 C6 2.34 6 1.68 6 1 C4.02 1.33 2.04 1.66 0 2 C0 1.34 0 0.68 0 0 Z " fill="#84C9E4" transform="translate(57,36)"/>
<path d="M0 0 C12.87 0 25.74 0 39 0 C39 2.31 39 4.62 39 7 C37.02 7 35.04 7 33 7 C33 5.68 33 4.36 33 3 C32.34 3 31.68 3 31 3 C31 4.32 31 5.64 31 7 C23.74 7 16.48 7 9 7 C9 5.68 9 4.36 9 3 C8.34 3 7.68 3 7 3 C7 4.32 7 5.64 7 7 C5.00045254 7.04254356 2.99958364 7.04080783 1 7 C0.67 6.67 0.34 6.34 0 6 C0 4.02 0 2.04 0 0 Z " fill="#2767A4" transform="translate(30,6)"/>
<path d="M0 0 C1.38120529 0.0001133 1.38120529 0.0001133 2.79031372 0.00022888 C4.28412064 0.00797081 4.28412064 0.00797081 5.80810547 0.01586914 C7.33538773 0.01799156 7.33538773 0.01799156 8.89352417 0.02015686 C12.15414332 0.02576639 15.41469448 0.03832051 18.67529297 0.05102539 C20.88232323 0.05603916 23.08935456 0.06060228 25.29638672 0.06469727 C30.71437877 0.07573891 36.13233101 0.09248634 41.55029297 0.11352539 C41.55029297 0.44352539 41.55029297 0.77352539 41.55029297 1.11352539 C33.30029297 1.11352539 25.05029297 1.11352539 16.55029297 1.11352539 C16.55029297 3.09352539 16.55029297 5.07352539 16.55029297 7.11352539 C11.27029297 7.11352539 5.99029297 7.11352539 0.55029297 7.11352539 C0.55029297 18.66352539 0.55029297 30.21352539 0.55029297 42.11352539 C0.22029297 42.11352539 -0.10970703 42.11352539 -0.44970703 42.11352539 C-0.77970703 30.89352539 -1.10970703 19.67352539 -1.44970703 8.11352539 C-2.10970703 7.78352539 -2.76970703 7.45352539 -3.44970703 7.11352539 C-3.79313152 5.7827555 -4.12590577 4.4492056 -4.44970703 3.11352539 C-5.10970703 2.45352539 -5.76970703 1.79352539 -6.44970703 1.11352539 C-4.07579867 -0.07342879 -2.64725752 -0.00723294 0 0 Z " fill="#223E50" transform="translate(31.44970703125,26.886474609375)"/>
<path d="M0 0 C3.96 0 7.92 0 12 0 C12 0.33 12 0.66 12 1 C8.37 1 4.74 1 1 1 C2.06645115 2.29633621 2.06645115 2.29633621 4.5625 2.0625 C5.366875 2.041875 6.17125 2.02125 7 2 C7 2.66 7 3.32 7 4 C6.34 4 5.68 4 5 4 C5 5.98 5 7.96 5 10 C3.68 10 2.36 10 1 10 C1 13.63 1 17.26 1 21 C3.97 21 6.94 21 10 21 C10.05386629 23.12472576 10.09273071 25.24983652 10.125 27.375 C10.14820312 28.55835937 10.17140625 29.74171875 10.1953125 30.9609375 C10 34 10 34 8 36 C3.44444444 35.44444444 3.44444444 35.44444444 2 34 C1.67648699 31.16027465 1.4869571 28.31926263 1.28125 25.46875 C1.26614735 23.0586395 1.26614735 23.0586395 0 22 C-0.08700342 20.36527118 -0.10701063 18.72685945 -0.09765625 17.08984375 C-0.09443359 16.10048828 -0.09121094 15.11113281 -0.08789062 14.09179688 C-0.07951172 13.05087891 -0.07113281 12.00996094 -0.0625 10.9375 C-0.05798828 9.89271484 -0.05347656 8.84792969 -0.04882812 7.77148438 C-0.03699927 5.18096546 -0.01906319 2.59047578 0 0 Z " fill="#3C4C50" transform="translate(56,35)"/>
<path d="M0 0 C3.63 0 7.26 0 11 0 C11.55353075 13.81776765 11.55353075 13.81776765 8 19 C7.34 19 6.68 19 6 19 C6.02094727 20.03406982 6.04189453 21.06813965 6.06347656 22.13354492 C6.13605288 25.98187328 6.18186317 29.83014154 6.21972656 33.67895508 C6.23980207 35.34247013 6.26706876 37.00591496 6.30175781 38.66918945 C6.35045766 41.0647924 6.37300856 43.45945992 6.390625 45.85546875 C6.41127014 46.5952446 6.43191528 47.33502045 6.45318604 48.09721375 C6.45477301 51.77596247 6.10912863 53.82701375 4.12792969 56.9675293 C1.58706371 59.39441196 0.46946752 59.67788822 -3 59.625 C-6.91024449 59.45198033 -7.67798263 59.30668321 -10.625 56.5 C-11.07875 55.675 -11.5325 54.85 -12 54 C-11.01 53.505 -11.01 53.505 -10 53 C-10 41.45 -10 29.9 -10 18 C-9.67 18 -9.34 18 -9 18 C-8.97494385 19.04454346 -8.9498877 20.08908691 -8.92407227 21.1652832 C-8.82991461 25.03992016 -8.72971428 28.91438134 -8.62768555 32.78881836 C-8.58436833 34.46585987 -8.54269093 36.14294458 -8.50268555 37.82006836 C-8.44490515 40.23043841 -8.3812332 42.6405917 -8.31640625 45.05078125 C-8.29969376 45.80087967 -8.28298126 46.55097809 -8.26576233 47.32380676 C-8.17655767 50.45677992 -7.99763547 53.0070936 -7 56 C-2.72213252 55.50639991 0.09567131 54.95216435 4 53 C4.33 41.12 4.66 29.24 5 17 C5.66 17 6.32 17 7 17 C7.33 15.35 7.66 13.7 8 12 C8.66 12 9.32 12 10 12 C10 8.7 10 5.4 10 2 C6.37 2 2.74 2 -1 2 C-0.67 1.34 -0.34 0.68 0 0 Z " fill="#1E1E1E" transform="translate(65,17)"/>
<path d="M0 0 C0.33 0 0.66 0 1 0 C1.33 9.9 1.66 19.8 2 30 C1.01 30.33 0.02 30.66 -1 31 C-1 31.66 -1 32.32 -1 33 C-1.99 33 -2.98 33 -4 33 C-4.495 31.515 -4.495 31.515 -5 30 C-6.32 30 -7.64 30 -9 30 C-9 25.38 -9 20.76 -9 16 C-7.68 16 -6.36 16 -5 16 C-4.67 16.99 -4.34 17.98 -4 19 C-3.34 19 -2.68 19 -2 19 C-1.93941406 17.79601562 -1.87882813 16.59203125 -1.81640625 15.3515625 C-1.73200268 13.77602923 -1.64735459 12.20050904 -1.5625 10.625 C-1.50352539 9.43390625 -1.50352539 9.43390625 -1.44335938 8.21875 C-1.11328125 2.2265625 -1.11328125 2.2265625 0 0 Z " fill="#171415" transform="translate(13,15)"/>
<path d="M0 0 C5.44432256 -0.04958399 10.88851249 -0.08580666 16.33300781 -0.10986328 C18.18361706 -0.11989631 20.03421055 -0.13352586 21.88476562 -0.15087891 C24.5508209 -0.17524608 27.21666584 -0.18651023 29.8828125 -0.1953125 C30.70492218 -0.20563507 31.52703186 -0.21595764 32.37405396 -0.22659302 C36.98755336 -0.2274861 40.65633804 0.23443276 45 2 C45 4.31 45 6.62 45 9 C42.03 9.66 39.06 10.32 36 11 C36.33 8.03 36.66 5.06 37 2 C24.46 2 11.92 2 -1 2 C-0.67 1.34 -0.34 0.68 0 0 Z " fill="#060A0D" transform="translate(32,3)"/>
<path d="M0 0 C1.4540625 0.0309375 1.4540625 0.0309375 2.9375 0.0625 C2.6075 0.7225 2.2775 1.3825 1.9375 2.0625 C-0.49609375 2.84375 -0.49609375 2.84375 -3.5 3.5625 C-7.73027825 4.48374104 -7.73027825 4.48374104 -11.0625 7.0625 C-13.40087891 7.28955078 -13.40087891 7.28955078 -16.2890625 7.2578125 C-17.8359375 7.24814453 -17.8359375 7.24814453 -19.4140625 7.23828125 C-20.49429688 7.22152344 -21.57453125 7.20476563 -22.6875 7.1875 C-23.77546875 7.17847656 -24.8634375 7.16945313 -25.984375 7.16015625 C-28.67730152 7.13653409 -31.36979255 7.10359556 -34.0625 7.0625 C-33.7325 6.4025 -33.4025 5.7425 -33.0625 5.0625 C-33.7225 4.7325 -34.3825 4.4025 -35.0625 4.0625 C-35.0625 3.4025 -35.0625 2.7425 -35.0625 2.0625 C-31.43751666 2.03356068 -27.81256287 2.01572208 -24.1875 2 C-22.63869141 1.98743164 -22.63869141 1.98743164 -21.05859375 1.97460938 C-20.07246094 1.97138672 -19.08632813 1.96816406 -18.0703125 1.96484375 C-16.70350342 1.95698853 -16.70350342 1.95698853 -15.30908203 1.94897461 C-13.0625 2.0625 -13.0625 2.0625 -11.0625 3.0625 C-11.0625 2.4025 -11.0625 1.7425 -11.0625 1.0625 C-9.928125 1.083125 -8.79375 1.10375 -7.625 1.125 C-3.70384291 1.05620777 -3.73763955 0.07627836 0 0 Z " fill="#0F1214" transform="translate(74.0625,11.9375)"/>
<path d="M0 0 C0.0093457 1.00901367 0.01869141 2.01802734 0.02832031 3.05761719 C0.0682477 6.80773776 0.13401281 10.55704029 0.20751953 14.30664062 C0.23571347 15.92827837 0.25693594 17.55005313 0.27099609 19.171875 C0.29244872 21.50592105 0.33910575 23.83832261 0.390625 26.171875 C0.39246796 27.25647003 0.39246796 27.25647003 0.39434814 28.36297607 C0.49372697 31.79210375 0.75810681 33.68342498 2.86621094 36.44238281 C5.27234938 38.19880881 7.06156673 38.67350741 10 39 C8 41 8 41 5.125 41.375 C2 41 2 41 -0.3125 39.25 C-3.50748723 34.99001702 -3.11835667 30.82588145 -3.09765625 25.609375 C-3.0962413 24.90476135 -3.09482635 24.20014771 -3.09336853 23.47418213 C-3.08778933 21.23274416 -3.07524073 18.99140757 -3.0625 16.75 C-3.05748231 15.22656395 -3.05291987 13.70312632 -3.04882812 12.1796875 C-3.03782674 8.45309228 -3.02057646 4.72655604 -3 1 C-1 0 -1 0 0 0 Z " fill="#070709" transform="translate(31,35)"/>
<path d="M0 0 C0.66 0.33 1.32 0.66 2 1 C2.09905303 5.34157052 2.17155301 9.68253854 2.21972656 14.02490234 C2.23981301 15.5012559 2.26708801 16.97753019 2.30175781 18.45361328 C2.35041184 20.57864962 2.37299673 22.70263234 2.390625 24.828125 C2.41157227 26.1059082 2.43251953 27.38369141 2.45410156 28.70019531 C2 32 2 32 0.17089844 34.44824219 C-2 36 -2 36 -5.125 36 C-8 35 -8 35 -9.171875 33.296875 C-10.18411528 30.48934064 -10.19589079 28.22741335 -10.125 25.25 C-10.09792969 23.77273437 -10.09792969 23.77273437 -10.0703125 22.265625 C-10.03550781 21.14414062 -10.03550781 21.14414062 -10 20 C-9.34 20 -8.68 20 -8 20 C-7.67 23.96 -7.34 27.92 -7 32 C-5.02 32.66 -3.04 33.32 -1 34 C-0.67 22.78 -0.34 11.56 0 0 Z " fill="#17191A" transform="translate(21,30)"/>
<path d="M0 0 C0.33 0 0.66 0 1 0 C1.33 5.28 1.66 10.56 2 16 C2.33 16 2.66 16 3 16 C3.11667875 19.22886009 3.18740546 22.45717445 3.25 25.6875 C3.30027344 27.05551758 3.30027344 27.05551758 3.3515625 28.45117188 C3.45112665 35.29620745 3.45112665 35.29620745 0.984375 39.14453125 C0.32953125 39.75683594 -0.3253125 40.36914062 -1 41 C-3.96175123 40.38722388 -5.38058783 39.74627478 -8 38 C-7.030625 37.690625 -6.06125 37.38125 -5.0625 37.0625 C-2.15934208 36.30476658 -2.15934208 36.30476658 -1 35 C-0.84003834 32.40846893 -0.74061303 29.8404798 -0.68359375 27.24609375 C-0.66281265 26.47064713 -0.64203156 25.6952005 -0.62062073 24.89625549 C-0.55504198 22.41009692 -0.49620201 19.92382955 -0.4375 17.4375 C-0.39432267 15.75584796 -0.35070864 14.07420706 -0.30664062 12.39257812 C-0.19935221 8.26183129 -0.09810868 4.13097464 0 0 Z " fill="#161D20" transform="translate(44,35)"/>
<path d="M0 0 C2.31 0 4.62 0 7 0 C7 4.29 7 8.58 7 13 C5.35 13.33 3.7 13.66 2 14 C0 12 0 12 -0.1953125 9.1796875 C-0.17210937 8.08914062 -0.14890625 6.99859375 -0.125 5.875 C-0.10695312 4.77929688 -0.08890625 3.68359375 -0.0703125 2.5546875 C-0.04710937 1.71164063 -0.02390625 0.86859375 0 0 Z " fill="#546264" transform="translate(34,57)"/>
<path d="M0 0 C15.18 0 30.36 0 46 0 C46 2.31 46 4.62 46 7 C45.67 7 45.34 7 45 7 C45 5.02 45 3.04 45 1 C34.77 1 24.54 1 14 1 C14 2.32 14 3.64 14 5 C12.02 5 10.04 5 8 5 C8 4.34 8 3.68 8 3 C5.36 3 2.72 3 0 3 C0 2.01 0 1.02 0 0 Z " fill="#75BBC7" transform="translate(27,20)"/>
<path d="M0 0 C3.96 0 7.92 0 12 0 C12.07413521 5.07198888 12.12859451 10.14366268 12.16479492 15.21606445 C12.17988516 16.94170627 12.20035975 18.66730972 12.22631836 20.39282227 C12.26269209 22.87265488 12.27972359 25.35198064 12.29296875 27.83203125 C12.30845261 28.60400345 12.32393646 29.37597565 12.33988953 30.17134094 C12.34155584 35.46989238 12.34155584 35.46989238 10.7121582 37.9987793 C7.91268441 39.63583077 5.15355196 39.17850294 2 39 C2.33 37.68 2.66 36.36 3 35 C4.65 35.33 6.3 35.66 8 36 C8.33 31.71 8.66 27.42 9 23 C6.69 23 4.38 23 2 23 C2 22.67 2 22.34 2 22 C4.64 22 7.28 22 10 22 C10.33 15.07 10.66 8.14 11 1 C7.37 1 3.74 1 0 1 C0 0.67 0 0.34 0 0 Z " fill="#517B8C" transform="translate(32,34)"/>
<path d="M0 0 C3.96 0 7.92 0 12 0 C12 0.33 12 0.66 12 1 C8.37 1 4.74 1 1 1 C2.06645115 2.29633621 2.06645115 2.29633621 4.5625 2.0625 C5.366875 2.041875 6.17125 2.02125 7 2 C7 2.66 7 3.32 7 4 C6.34 4 5.68 4 5 4 C5 5.98 5 7.96 5 10 C3.68 10 2.36 10 1 10 C1 13.63 1 17.26 1 21 C1.66 21 2.32 21 3 21 C3 25.29 3 29.58 3 34 C2.67 34 2.34 34 2 34 C1.93941406 33.21753906 1.87882812 32.43507812 1.81640625 31.62890625 C1.73261719 30.61699219 1.64882813 29.60507813 1.5625 28.5625 C1.48128906 27.55316406 1.40007813 26.54382813 1.31640625 25.50390625 C1.26788532 23.06359221 1.26788532 23.06359221 0 22 C-0.08700342 20.36527118 -0.10701063 18.72685945 -0.09765625 17.08984375 C-0.09443359 16.10048828 -0.09121094 15.11113281 -0.08789062 14.09179688 C-0.07951172 13.05087891 -0.07113281 12.00996094 -0.0625 10.9375 C-0.05798828 9.89271484 -0.05347656 8.84792969 -0.04882812 7.77148438 C-0.03699927 5.18096546 -0.01906319 2.59047578 0 0 Z " fill="#6AA2B7" transform="translate(56,35)"/>
<path d="M0 0 C0.90105469 0.00902344 1.80210938 0.01804687 2.73046875 0.02734375 C3.41753906 0.03894531 4.10460937 0.05054688 4.8125 0.0625 C4.8125 2.3725 4.8125 4.6825 4.8125 7.0625 C2.8325 7.0625 0.8525 7.0625 -1.1875 7.0625 C-1.1875 5.7425 -1.1875 4.4225 -1.1875 3.0625 C-2.1775 3.0625 -3.1675 3.0625 -4.1875 3.0625 C-4.1875 4.0525 -4.1875 5.0425 -4.1875 6.0625 C-10.7875 6.0625 -17.3875 6.0625 -24.1875 6.0625 C-24.1875 5.7325 -24.1875 5.4025 -24.1875 5.0625 C-19.5675 5.0625 -14.9475 5.0625 -10.1875 5.0625 C-9.8575 4.0725 -9.5275 3.0825 -9.1875 2.0625 C-9.1875 3.0525 -9.1875 4.0425 -9.1875 5.0625 C-7.8675 5.0625 -6.5475 5.0625 -5.1875 5.0625 C-5.1875 4.0725 -5.1875 3.0825 -5.1875 2.0625 C-6.1775 1.7325 -7.1675 1.4025 -8.1875 1.0625 C-5.17259443 0.05753148 -3.14568308 -0.04085303 0 0 Z " fill="#2B70B4" transform="translate(64.1875,5.9375)"/>
<path d="M0 0 C0.66 0 1.32 0 2 0 C2 3.3 2 6.6 2 10 C1.01 10.495 1.01 10.495 0 11 C0.33 15.62 0.66 20.24 1 25 C2.32 25.33 3.64 25.66 5 26 C5 26.66 5 27.32 5 28 C2.625 28.125 2.625 28.125 0 28 C-2 26 -2 26 -2.1953125 23.1796875 C-2.17210937 22.08914062 -2.14890625 20.99859375 -2.125 19.875 C-2.10695313 18.77929688 -2.08890625 17.68359375 -2.0703125 16.5546875 C-2.04710937 15.71164063 -2.02390625 14.86859375 -2 14 C-2.66 14 -3.32 14 -4 14 C-4 12.35 -4 10.7 -4 9 C-2.68 9 -1.36 9 0 9 C0 6.03 0 3.06 0 0 Z " fill="#050506" transform="translate(15,36)"/>
<path d="M0 0 C0.33 0 0.66 0 1 0 C1.02505615 1.04454346 1.0501123 2.08908691 1.07592773 3.1652832 C1.17008539 7.03992016 1.27028572 10.91438134 1.37231445 14.78881836 C1.41563167 16.46585987 1.45730907 18.14294458 1.49731445 19.82006836 C1.55509485 22.23043841 1.6187668 24.6405917 1.68359375 27.05078125 C1.70030624 27.80087967 1.71701874 28.55097809 1.73423767 29.32380676 C1.82344233 32.45677992 2.00236453 35.0070936 3 38 C5.64 38.33 8.28 38.66 11 39 C7.50434664 41.33043558 6.1134271 41.58763244 2 41 C-0.375 38.5 -0.375 38.5 -2 36 C-1.01 35.505 -1.01 35.505 0 35 C0 23.45 0 11.9 0 0 Z " fill="#161F22" transform="translate(55,35)"/>
<path d="M0 0 C5.61 0 11.22 0 17 0 C17 1.32 17 2.64 17 4 C11.39 4 5.78 4 0 4 C0 2.68 0 1.36 0 0 Z " fill="#1A456F" transform="translate(54,29)"/>
<path d="M0 0 C0.33 0 0.66 0 1 0 C1.33 9.9 1.66 19.8 2 30 C0.68 30 -0.64 30 -2 30 C-2 29.01 -2 28.02 -2 27 C-3.65 27 -5.3 27 -7 27 C-7 26.34 -7 25.68 -7 25 C-5.35 25 -3.7 25 -2 25 C-1.27586627 21.68856994 -0.83645745 18.52155779 -0.68359375 15.13671875 C-0.64169922 14.25048828 -0.59980469 13.36425781 -0.55664062 12.45117188 C-0.51732422 11.53916016 -0.47800781 10.62714844 -0.4375 9.6875 C-0.39431641 8.75615234 -0.35113281 7.82480469 -0.30664062 6.86523438 C-0.20102775 4.57695546 -0.09892248 2.28857628 0 0 Z " fill="#020203" transform="translate(13,15)"/>
<path d="M0 0 C0.99 0.495 0.99 0.495 2 1 C2.4140625 3.50390625 2.4140625 3.50390625 2.625 6.5625 C2.69976562 7.57441406 2.77453125 8.58632812 2.8515625 9.62890625 C2.92503906 10.80259766 2.92503906 10.80259766 3 12 C4.65614657 12.38218767 6.32457024 12.71395102 8 13 C9.81115956 11.18884044 9.38199448 8.38721773 9.5625 5.9375 C9.64628906 4.83277344 9.73007813 3.72804687 9.81640625 2.58984375 C9.87699219 1.73519531 9.93757813 0.88054688 10 0 C10.33 0 10.66 0 11 0 C11.24887295 2.10192697 11.4734719 4.20673964 11.6875 6.3125 C11.81511719 7.48425781 11.94273438 8.65601562 12.07421875 9.86328125 C12 13 12 13 10.7421875 14.89453125 C7.84619378 16.73212367 5.3153489 16.36167443 2 16 C-0.42130331 12.36804504 -0.21022785 10.61650652 -0.125 6.3125 C-0.09792969 4.54326172 -0.09792969 4.54326172 -0.0703125 2.73828125 C-0.04710937 1.83464844 -0.02390625 0.93101563 0 0 Z " fill="#76B5CD" transform="translate(56,57)"/>
<path d="M0 0 C0.33 0.66 0.66 1.32 1 2 C12.55 2.33 24.1 2.66 36 3 C36 3.33 36 3.66 36 4 C21.15 4 6.3 4 -9 4 C-9 3.34 -9 2.68 -9 2 C-6.03 2 -3.06 2 0 2 C0 1.34 0 0.68 0 0 Z " fill="#7CC6D2" transform="translate(36,23)"/>
<path d="M0 0 C0 0.99 0 1.98 0 3 C-0.639375 3.226875 -1.27875 3.45375 -1.9375 3.6875 C-4.27193661 4.85250896 -4.27193661 4.85250896 -4.75 7.625 C-4.8325 8.40875 -4.915 9.1925 -5 10 C-6.32 10 -7.64 10 -9 10 C-9.36103152 3.6217765 -9.36103152 3.6217765 -7.875 1.0625 C-5.214973 -0.44484863 -2.99793795 -0.19986253 0 0 Z " fill="#161618" transform="translate(12,11)"/>
<path d="M0 0 C2.64 0 5.28 0 8 0 C8.22126178 2.45779976 8.42750395 4.91527648 8.625 7.375 C8.68945312 8.07367188 8.75390625 8.77234375 8.8203125 9.4921875 C8.96119739 11.32369111 8.98761659 13.16312748 9 15 C7 17 7 17 3.375 17.125 C2.26125 17.08375 1.1475 17.0425 0 17 C0.33 15.68 0.66 14.36 1 13 C2.65 13.33 4.3 13.66 6 14 C6.33 9.71 6.66 5.42 7 1 C4.69 1 2.38 1 0 1 C0 0.67 0 0.34 0 0 Z " fill="#5F92A5" transform="translate(34,56)"/>
<path d="M0 0 C0.33 0.99 0.66 1.98 1 3 C1.99 3.33 2.98 3.66 4 4 C4 5.32 4 6.64 4 8 C4.66 8 5.32 8 6 8 C6 14.93 6 21.86 6 29 C5.67 29 5.34 29 5 29 C5 22.73 5 16.46 5 10 C4.01 9.67 3.02 9.34 2 9 C1.05078125 7.15234375 1.05078125 7.15234375 0.3125 4.9375 C0.06113281 4.20402344 -0.19023437 3.47054688 -0.44921875 2.71484375 C-0.63097656 2.14894531 -0.81273438 1.58304688 -1 1 C-0.67 0.67 -0.34 0.34 0 0 Z " fill="#171617" transform="translate(24,26)"/>
<path d="M0 0 C1.32 0 2.64 0 4 0 C4 0.99 4 1.98 4 3 C9.28 3.33 14.56 3.66 20 4 C20.33 3.01 20.66 2.02 21 1 C21 2.32 21 3.64 21 5 C13.74 5 6.48 5 -1 5 C-0.67 3.35 -0.34 1.7 0 0 Z " fill="#1F4E7C" transform="translate(40,8)"/>
<path d="M0 0 C2.31 0 4.62 0 7 0 C7 4.29 7 8.58 7 13 C5.35 13.33 3.7 13.66 2 14 C2.72123047 13.41798828 2.72123047 13.41798828 3.45703125 12.82421875 C5.45749498 10.45911353 5.48876068 8.87308547 5.6875 5.8125 C5.75324219 4.91144531 5.81898437 4.01039062 5.88671875 3.08203125 C5.92410156 2.39496094 5.96148437 1.70789062 6 1 C4.35 1 2.7 1 1 1 C1 4.63 1 8.26 1 12 C0.67 12 0.34 12 0 12 C0 8.04 0 4.08 0 0 Z " fill="#0E1618" transform="translate(34,57)"/>
<path d="M0 0 C0.66 1.32 1.32 2.64 2 4 C2.66 3.938125 3.32 3.87625 4 3.8125 C8.09084054 4.06817753 11.20666984 5.45695044 15 7 C15 7.33 15 7.66 15 8 C9.01006953 8.3152595 5.36439644 7.68219822 0 5 C0 3.35 0 1.7 0 0 Z " fill="#1B1A1C" transform="translate(22,8)"/>
<path d="M0 0 C1.65 0 3.3 0 5 0 C5 0.99 5 1.98 5 3 C4.34 3 3.68 3 3 3 C3 4.65 3 6.3 3 8 C2.01 8 1.02 8 0 8 C0 5.36 0 2.72 0 0 Z " fill="#213238" transform="translate(34,37)"/>
<path d="M0 0 C0.33 0.99 0.66 1.98 1 3 C-0.9375 5.6875 -0.9375 5.6875 -3 8 C-5.96175123 7.38722388 -7.38058783 6.74627478 -10 5 C-7 4 -4 3 -1 2 C-0.67 1.34 -0.34 0.68 0 0 Z " fill="#1D282C" transform="translate(70,68)"/>
<path d="M0 0 C0.99 0.495 0.99 0.495 2 1 C3.49933215 1.04475618 5.00050573 1.0389479 6.5 1 C10.77777778 0.88888889 10.77777778 0.88888889 13 2 C13 2.99 13 3.98 13 5 C11.35 5 9.7 5 8 5 C8 4.34 8 3.68 8 3 C5.36 3 2.72 3 0 3 C0 2.01 0 1.02 0 0 Z " fill="#51828B" transform="translate(27,20)"/>
<path d="M0 0 C-1 2 -1 2 -3.6875 3.125 C-6.9579435 3.98889074 -9.63706182 4.16013991 -13 4 C-13 3.34 -13 2.68 -13 2 C-8.46298506 0.54815522 -4.81938524 -0.23509196 0 0 Z " fill="#1E1E1F" transform="translate(77,12)"/>
<path d="M0 0 C1.32 0.66 2.64 1.32 4 2 C3.34 2 2.68 2 2 2 C1.67 3.98 1.34 5.96 1 8 C1.66 8.33 2.32 8.66 3 9 C1.68 9 0.36 9 -1 9 C-1.125 2.25 -1.125 2.25 0 0 Z " fill="#0A0B0E" transform="translate(4,12)"/>
<path d="M0 0 C0.99 0 1.98 0 3 0 C3 2.64 3 5.28 3 8 C2.01 8 1.02 8 0 8 C0 5.36 0 2.72 0 0 Z " fill="#04356A" transform="translate(12,37)"/>
<path d="M0 0 C2.64 0 5.28 0 8 0 C8 0.99 8 1.98 8 3 C5.36 3 2.72 3 0 3 C0 2.01 0 1.02 0 0 Z " fill="#0F2439" transform="translate(46,8)"/>
<path d="M0 0 C2.64 0.66 5.28 1.32 8 2 C8 1.34 8 0.68 8 0 C8.66 0 9.32 0 10 0 C9.67 0.99 9.34 1.98 9 3 C6.1875 3.625 6.1875 3.625 3 4 C2.01 3.34 1.02 2.68 0 2 C0 1.34 0 0.68 0 0 Z " fill="#141415" transform="translate(12,62)"/>
<path d="M0 0 C1.32 0 2.64 0 4 0 C4 0.66 4 1.32 4 2 C3.34 2 2.68 2 2 2 C2 3.98 2 5.96 2 8 C1.34 8 0.68 8 0 8 C0 5.36 0 2.72 0 0 Z " fill="#19262B" transform="translate(59,37)"/>
<path d="M0 0 C4.95 0.99 4.95 0.99 10 2 C6.77208445 4.1519437 5.71599191 4.20086443 2 4 C1.34 2.68 0.68 1.36 0 0 Z " fill="#0A0D0E" transform="translate(56,72)"/>
</svg>
